<svg xmlns="http://www.w3.org/2000/svg" width="698.58" height="527.206" viewBox="0 0 698.58 527.206">
  <g id="undraw_certificate_343v" transform="translate(0 0)">
    <path id="Pfad_1" data-name="Pfad 1" d="M653.568,324.343c0,81.09-47.541,152.828-120.42,196.5-46.727,28-103.876,44.471-165.583,44.471-82.205,0-144.912-31.068-192.081-78.66C132.007,442.8,101.734,384.9,81.562,324.343c-90.051-270.357,60.38-344.114,286-240.968C511.22,149.056,653.568,191.264,653.568,324.343Z" transform="translate(-55.067 -38.747)" fill="#2979ff"/>
    <path id="Pfad_2" data-name="Pfad 2" d="M600.6,263.5V602.175c-46.727,28-103.876,44.471-165.583,44.471-82.205,0-144.912-31.068-192.081-78.66V263.5Z" transform="translate(-122.516 -119.44)" fill="#f2f2f2"/>
    <path id="Pfad_3" data-name="Pfad 3" d="M295.942,514.018a223.769,223.769,0,0,1,57.788-10.3,180.844,180.844,0,0,1,29.466,1.153,184.318,184.318,0,0,1,28.6,6.123c9.243,2.676,18.359,5.768,27.571,8.546a257.171,257.171,0,0,0,28.495,6.953,241.577,241.577,0,0,0,28.953,3.451,176.329,176.329,0,0,0,28.917-.357,88.467,88.467,0,0,0,26.017-6.6,79.459,79.459,0,0,0,21.159-13.571q2.354-2.1,4.529-4.388c.856-.894-.5-2.256-1.36-1.36a79.48,79.48,0,0,1-45.847,23.413,152.776,152.776,0,0,1-28.827,1.156,237.17,237.17,0,0,1-29.3-2.961,244.878,244.878,0,0,1-28.38-6.459c-9.158-2.653-18.192-5.712-27.318-8.47a205.581,205.581,0,0,0-28.125-6.7,176.866,176.866,0,0,0-28.856-2,220.625,220.625,0,0,0-57.029,8.445q-3.5.982-6.961,2.072c-1.177.369-.674,2.226.511,1.854Z" transform="translate(-141.123 -204.935)" fill="#3f3d56"/>
    <path id="Pfad_4" data-name="Pfad 4" d="M295.942,590.018a223.769,223.769,0,0,1,57.788-10.3,180.857,180.857,0,0,1,29.466,1.153,184.317,184.317,0,0,1,28.6,6.123c9.243,2.676,18.359,5.768,27.571,8.546a257.116,257.116,0,0,0,28.495,6.953,241.565,241.565,0,0,0,28.953,3.451,176.329,176.329,0,0,0,28.917-.357,88.469,88.469,0,0,0,26.017-6.6,79.459,79.459,0,0,0,21.159-13.571q2.354-2.1,4.529-4.388c.856-.894-.5-2.256-1.36-1.36a79.48,79.48,0,0,1-45.847,23.413,152.781,152.781,0,0,1-28.827,1.156,237.193,237.193,0,0,1-29.3-2.961,244.854,244.854,0,0,1-28.38-6.459c-9.158-2.653-18.192-5.712-27.318-8.47a205.572,205.572,0,0,0-28.125-6.7,176.867,176.867,0,0,0-28.856-2,220.63,220.63,0,0,0-57.029,8.445q-3.5.982-6.961,2.072c-1.177.369-.674,2.226.511,1.854Z" transform="translate(-141.123 -232.22)" fill="#3f3d56"/>
    <path id="Pfad_5" data-name="Pfad 5" d="M295.942,445.018a223.764,223.764,0,0,1,57.788-10.3,180.857,180.857,0,0,1,29.466,1.153,184.309,184.309,0,0,1,28.6,6.123c9.243,2.676,18.359,5.768,27.571,8.546a257.144,257.144,0,0,0,28.495,6.953,241.568,241.568,0,0,0,28.953,3.451,176.335,176.335,0,0,0,28.917-.357,88.471,88.471,0,0,0,26.017-6.6,79.463,79.463,0,0,0,21.159-13.571q2.354-2.1,4.529-4.388c.856-.894-.5-2.256-1.36-1.36a79.479,79.479,0,0,1-45.847,23.413,152.766,152.766,0,0,1-28.827,1.157,237.175,237.175,0,0,1-29.3-2.96,244.89,244.89,0,0,1-28.379-6.46c-9.158-2.653-18.192-5.712-27.318-8.47a205.581,205.581,0,0,0-28.125-6.7,176.873,176.873,0,0,0-28.856-2,220.625,220.625,0,0,0-57.029,8.445q-3.5.982-6.961,2.072c-1.177.369-.674,2.226.511,1.854Z" transform="translate(-141.123 -180.162)" fill="#3f3d56"/>
    <path id="Pfad_6" data-name="Pfad 6" d="M292.206,319.607c4.652-2.061,9.982-1.7,14.81-.507,5.206,1.289,10.109,3.53,15.234,5.079a52.733,52.733,0,0,0,28.189.535,51.957,51.957,0,0,0,14.763-6.328c1.045-.657.081-2.322-.971-1.66a50.948,50.948,0,0,1-27.126,7.733,49.769,49.769,0,0,1-14.2-2.091c-5.088-1.525-9.951-3.74-15.1-5.054-5.461-1.392-11.316-1.694-16.565.632-1.129.5-.152,2.158.971,1.66Z" transform="translate(-139.677 -138.372)" fill="#3f3d56"/>
    <circle id="Ellipse_1" data-name="Ellipse 1" cx="29.485" cy="29.485" r="29.485" transform="translate(265.919 417.119)" fill="#3f3d56"/>
    <circle id="Ellipse_2" data-name="Ellipse 2" cx="16.024" cy="16.024" r="16.024" transform="translate(120.418 51.763)" fill="#f2f2f2"/>
    <circle id="Ellipse_3" data-name="Ellipse 3" cx="10.897" cy="10.897" r="10.897" transform="translate(265.919 102.4)" fill="#f2f2f2"/>
    <circle id="Ellipse_4" data-name="Ellipse 4" cx="10.897" cy="10.897" r="10.897" transform="translate(89.01 206.879)" fill="#f2f2f2"/>
    <rect id="Rechteck_2" data-name="Rechteck 2" width="1.202" height="214.883" transform="translate(54.833 136.825)" fill="#3f3d56"/>
    <ellipse id="Ellipse_5" data-name="Ellipse 5" cx="23.432" cy="53.473" rx="23.432" ry="53.473" transform="translate(32.234 226.347)" fill="#3f3d56"/>
    <ellipse id="Ellipse_6" data-name="Ellipse 6" cx="23.432" cy="53.473" rx="23.432" ry="53.473" transform="translate(32.234 104.381)" fill="#3f3d56"/>
    <path id="Pfad_7" data-name="Pfad 7" d="M120.95,186.14l-1.151-.345c.073-.243,7.137-24.451-4.462-40.036-6.552-8.8-17.794-13.265-33.414-13.265v-1.2c16.024,0,27.591,4.627,34.382,13.753C128.263,161.119,121.025,185.891,120.95,186.14Z" transform="translate(-64.709 -71.973)" fill="#3f3d56"/>
    <circle id="Ellipse_7" data-name="Ellipse 7" cx="15.02" cy="15.02" r="15.02" transform="translate(2.193 44.9)" fill="#3f3d56"/>
    <path id="Pfad_8" data-name="Pfad 8" d="M819.512,659.262,808.274,762.65h77.541l3.371-7.867,4.5,7.867h73.046s-5.619-106.76-15.733-110.132S819.512,659.262,819.512,659.262Z" transform="translate(-325.487 -258.859)" fill="#2f2e41"/>
    <circle id="Ellipse_8" data-name="Ellipse 8" cx="39.333" cy="39.333" r="39.333" transform="translate(520.996 94.732)" fill="#ffb8b8"/>
    <path id="Pfad_9" data-name="Pfad 9" d="M894.1,281.439s3.371,35.961,0,38.209,53.942,1.124,53.942,1.124-7.866-32.59,0-48.323Z" transform="translate(-356.251 -122.652)" fill="#ffb8b8"/>
    <path id="Pfad_10" data-name="Pfad 10" d="M882.151,331.3s28.917,4.5,31.315-4.491l14.76,20.224,1.124,202.282s-120.245,14.609-124.741-8.99,46.075-210.149,46.075-210.149l12.731-.824S879.9,331.3,882.151,331.3Z" transform="translate(-324.07 -142.168)" fill="#d0cde1"/>
    <path id="Pfad_11" data-name="Pfad 11" d="M838.245,316.375l-19.282,6.682L763.9,336.542,766.145,471.4s-47.2,134.855-25.847,144.969,51.694-13.485,60.685-30.342,40.456-250.605,40.456-255.1S838.245,316.375,838.245,316.375Z" transform="translate(-299.091 -138.422)" fill="#3f3d56"/>
    <path id="Pfad_12" data-name="Pfad 12" d="M971.709,316.375l7.616,6.682,53.942,24.723L1006.3,483.758s35.961,123.617,22.476,130.359-33.714,25.847-38.209,14.609S959.6,328.8,971.709,316.375Z" transform="translate(-383.036 -138.422)" fill="#3f3d56"/>
    <path id="Pfad_13" data-name="Pfad 13" d="M993.206,591.091s-50.571-21.352-51.694-2.248,57.313,32.59,57.313,26.971S993.206,591.091,993.206,591.091Z" transform="translate(-373.317 -233.393)" fill="#ffb8b8"/>
    <path id="Pfad_14" data-name="Pfad 14" d="M820.5,584.528s58.437,43.828,35.961,55.066-51.694-39.333-51.694-39.333Z" transform="translate(-324.228 -234.696)" fill="#ffb8b8"/>
    <path id="Pfad_15" data-name="Pfad 15" d="M920.826,157.178a2.169,2.169,0,0,1,2.088-1.239c-18.007-1.077-36.974,1.022-52.039,10.945-4.219,2.779-8.159,6.177-12.962,7.744l3.9,3.058-4.658,1.42,6.855,4.431a5.942,5.942,0,0,1-5.659,1.9c2.979.87,5.173,3.522,6.287,6.419a30.471,30.471,0,0,1,1.5,9.15c1.151-4.47,6.03-7.1,10.639-7.369s9.1,1.253,13.588,2.346a75.169,75.169,0,0,0,29.836,1.148c-3.369,6.762-.527,14.827,2.333,21.819l5.711,13.961c3.171.319,5.411-2.834,7.8-4.943,2.177-1.922-6.49,14.984-5.148,14.364,1.743-.8,20.14-21.116,21-22.832a52.235,52.235,0,0,0,5.934-25.314c-.355-8.753-3.557-17.51-9.591-23.862-4.1-4.312-9.763-5.067-13.939-8.651-1.643-1.41-1.65-2.512-3.908-3.335C929.645,158.06,920.95,156.9,920.826,157.178Z" transform="translate(-343.036 -80.731)" fill="#2f2e41"/>
    <path id="Pfad_16" data-name="Pfad 16" d="M751.1,351.211l-7.867-3.372L680.3,451.228s-11.238,26.971,8.99,39.333,67.427,49.447,67.427,49.447l26.971-41.58s-55.066-25.847-51.694-35.961,21.352-37.085,21.352-37.085Z" transform="translate(-278.422 -149.719)" fill="#3f3d56"/>
    <path id="Pfad_17" data-name="Pfad 17" d="M1032.872,361.865l14.609,2.248s60.685,119.122,46.075,141.6-74.171,53.942-74.171,53.942-1.124-37.085-11.238-50.571l34.837-13.485-19.1-74.17Z" transform="translate(-397.247 -154.754)" fill="#3f3d56"/>
  </g>
</svg>
